<?xml version="1.0" encoding="UTF-8"?>
<svg id="_5_sun_top" data-name="5_sun_top" xmlns="http://www.w3.org/2000/svg" width="1920" height="1080" viewBox="0 0 1920 1080">
  <defs>
    <style>
      .cls-1 {
        fill: #fff359;
      }

      .cls-2 {
        fill: #fffd99;
      }

      .cls-3 {
        fill: #f9faf5;
      }

      .cls-4 {
        fill: #feffc7;
      }
    </style>
  </defs>
  <g>
    <path class="cls-1" d="M1799.88,1145.17c-81.16,0-157.46-31.6-214.85-88.99-57.39-57.39-88.99-133.69-88.99-214.85s31.6-157.46,88.99-214.85c57.39-57.39,133.69-88.99,214.85-88.99s157.46,31.6,214.85,88.99c57.39,57.39,88.99,133.69,88.99,214.85s-31.6,157.46-88.99,214.85c-57.39,57.39-133.69,88.99-214.85,88.99Z"/>
    <path class="cls-3" d="M1799.88,541.49c38.95,0,76.91,7.39,112.83,21.95,37.19,15.08,70.56,37.24,99.18,65.87,28.62,28.62,50.79,62,65.87,99.18,14.57,35.92,21.95,73.89,21.95,112.83s-7.39,76.91-21.95,112.83c-15.08,37.19-37.24,70.56-65.87,99.18-28.62,28.62-62,50.79-99.18,65.87-35.92,14.57-73.89,21.95-112.83,21.95s-76.91-7.39-112.83-21.95c-37.19-15.08-70.56-37.24-99.18-65.87-28.62-28.62-50.79-62-65.87-99.18-14.57-35.92-21.95-73.89-21.95-112.83s7.39-76.91,21.95-112.83c15.08-37.19,37.24-70.56,65.87-99.18,28.62-28.62,62-50.79,99.18-65.87,35.92-14.57,73.89-21.95,112.83-21.95M1799.88,533.49c-78.78,0-157.56,30.05-217.67,90.16-120.22,120.22-120.22,315.13,0,435.35,60.11,60.11,138.89,90.16,217.67,90.16s157.57-30.05,217.67-90.16c120.22-120.22,120.22-315.13,0-435.35-60.11-60.11-138.89-90.16-217.67-90.16h0Z"/>
  </g>
  <circle class="cls-2" cx="1799.88" cy="841.33" r="267.74"/>
  <circle class="cls-4" cx="1799.88" cy="841.33" r="187.29"/>
</svg>